<?xml version="1.0" encoding="UTF-8" standalone="no"?>
<!DOCTYPE svg PUBLIC "-//W3C//DTD SVG 1.1//EN"
 "http://www.w3.org/Graphics/SVG/1.1/DTD/svg11.dtd">
<!-- Generated by graphviz version 8.0.5 (20230430.1635)
 -->
<!-- Pages: 1 -->
<svg width="1217pt" height="332pt"
 viewBox="0.00 0.00 1217.20 332.00" xmlns="http://www.w3.org/2000/svg" xmlns:xlink="http://www.w3.org/1999/xlink">
<g id="graph0" class="graph" transform="scale(1 1) rotate(0) translate(4 328)">
<polygon fill="white" stroke="none" points="-4,4 -4,-328 1213.2,-328 1213.2,4 -4,4"/>
<!-- [root] azurerm_network_security_group.appnsg (expand) -->
<g id="node1" class="node">
<title>[root] azurerm_network_security_group.appnsg (expand)</title>
<polygon fill="none" stroke="black" points="984.17,-180 735.67,-180 735.67,-144 984.17,-144 984.17,-180"/>
<text text-anchor="middle" x="859.92" y="-156.57" font-family="Times New Roman,serif" font-size="14.00">azurerm_network_security_group.appnsg</text>
</g>
<!-- [root] azurerm_resource_group.appgrp (expand) -->
<g id="node2" class="node">
<title>[root] azurerm_resource_group.appgrp (expand)</title>
<polygon fill="none" stroke="black" points="804.8,-108 605.05,-108 605.05,-72 804.8,-72 804.8,-108"/>
<text text-anchor="middle" x="704.92" y="-84.58" font-family="Times New Roman,serif" font-size="14.00">azurerm_resource_group.appgrp</text>
</g>
<!-- [root] azurerm_network_security_group.appnsg (expand)&#45;&gt;[root] azurerm_resource_group.appgrp (expand) -->
<g id="edge1" class="edge">
<title>[root] azurerm_network_security_group.appnsg (expand)&#45;&gt;[root] azurerm_resource_group.appgrp (expand)</title>
<path fill="none" stroke="black" d="M821.21,-143.52C800.6,-134.21 775.07,-122.68 753.18,-112.79"/>
<polygon fill="black" stroke="black" points="754.96,-109.31 744.41,-108.38 752.08,-115.69 754.96,-109.31"/>
</g>
<!-- [root] local.networksecuritygroup_rules (expand) -->
<g id="node4" class="node">
<title>[root] local.networksecuritygroup_rules (expand)</title>
<ellipse fill="none" stroke="black" cx="1015.92" cy="-90" rx="193.28" ry="18"/>
<text text-anchor="middle" x="1015.92" y="-84.58" font-family="Times New Roman,serif" font-size="14.00">[root] local.networksecuritygroup_rules (expand)</text>
</g>
<!-- [root] azurerm_network_security_group.appnsg (expand)&#45;&gt;[root] local.networksecuritygroup_rules (expand) -->
<g id="edge2" class="edge">
<title>[root] azurerm_network_security_group.appnsg (expand)&#45;&gt;[root] local.networksecuritygroup_rules (expand)</title>
<path fill="none" stroke="black" d="M898.88,-143.52C919.86,-134.11 945.91,-122.42 968.1,-112.46"/>
<polygon fill="black" stroke="black" points="969.3,-115.31 976.99,-108.02 966.44,-108.92 969.3,-115.31"/>
</g>
<!-- [root] provider[&quot;registry.terraform.io/hashicorp/azurerm&quot;] -->
<g id="node3" class="node">
<title>[root] provider[&quot;registry.terraform.io/hashicorp/azurerm&quot;]</title>
<polygon fill="none" stroke="black" points="283.92,-36 0,-18 283.92,0 567.84,-18 283.92,-36"/>
<text text-anchor="middle" x="283.92" y="-12.58" font-family="Times New Roman,serif" font-size="14.00">provider[&quot;registry.terraform.io/hashicorp/azurerm&quot;]</text>
</g>
<!-- [root] azurerm_resource_group.appgrp (expand)&#45;&gt;[root] provider[&quot;registry.terraform.io/hashicorp/azurerm&quot;] -->
<g id="edge5" class="edge">
<title>[root] azurerm_resource_group.appgrp (expand)&#45;&gt;[root] provider[&quot;registry.terraform.io/hashicorp/azurerm&quot;]</title>
<path fill="none" stroke="black" d="M604.62,-72.32C533.4,-60.48 438.74,-44.74 370.75,-33.44"/>
<polygon fill="black" stroke="black" points="371.51,-29.85 361.08,-31.66 370.37,-36.76 371.51,-29.85"/>
</g>
<!-- [root] local.location (expand) -->
<g id="node5" class="node">
<title>[root] local.location (expand)</title>
<ellipse fill="none" stroke="black" cx="704.92" cy="-18" rx="119.43" ry="18"/>
<text text-anchor="middle" x="704.92" y="-12.58" font-family="Times New Roman,serif" font-size="14.00">[root] local.location (expand)</text>
</g>
<!-- [root] azurerm_resource_group.appgrp (expand)&#45;&gt;[root] local.location (expand) -->
<g id="edge3" class="edge">
<title>[root] azurerm_resource_group.appgrp (expand)&#45;&gt;[root] local.location (expand)</title>
<path fill="none" stroke="black" d="M704.92,-71.7C704.92,-64.24 704.92,-55.32 704.92,-46.97"/>
<polygon fill="black" stroke="black" points="708.42,-47.1 704.92,-37.1 701.42,-47.1 708.42,-47.1"/>
</g>
<!-- [root] local.resource_group_name (expand) -->
<g id="node6" class="node">
<title>[root] local.resource_group_name (expand)</title>
<ellipse fill="none" stroke="black" cx="1015.92" cy="-18" rx="173.32" ry="18"/>
<text text-anchor="middle" x="1015.92" y="-12.58" font-family="Times New Roman,serif" font-size="14.00">[root] local.resource_group_name (expand)</text>
</g>
<!-- [root] azurerm_resource_group.appgrp (expand)&#45;&gt;[root] local.resource_group_name (expand) -->
<g id="edge4" class="edge">
<title>[root] azurerm_resource_group.appgrp (expand)&#45;&gt;[root] local.resource_group_name (expand)</title>
<path fill="none" stroke="black" d="M782.6,-71.52C829.01,-61.07 887.89,-47.82 934.89,-37.24"/>
<polygon fill="black" stroke="black" points="935.35,-40.5 944.34,-34.89 933.82,-33.67 935.35,-40.5"/>
</g>
<!-- [root] provider[&quot;registry.terraform.io/hashicorp/azurerm&quot;] (close) -->
<g id="node7" class="node">
<title>[root] provider[&quot;registry.terraform.io/hashicorp/azurerm&quot;] (close)</title>
<ellipse fill="none" stroke="black" cx="859.92" cy="-234" rx="252.66" ry="18"/>
<text text-anchor="middle" x="859.92" y="-228.57" font-family="Times New Roman,serif" font-size="14.00">[root] provider[&quot;registry.terraform.io/hashicorp/azurerm&quot;] (close)</text>
</g>
<!-- [root] provider[&quot;registry.terraform.io/hashicorp/azurerm&quot;] (close)&#45;&gt;[root] azurerm_network_security_group.appnsg (expand) -->
<g id="edge6" class="edge">
<title>[root] provider[&quot;registry.terraform.io/hashicorp/azurerm&quot;] (close)&#45;&gt;[root] azurerm_network_security_group.appnsg (expand)</title>
<path fill="none" stroke="black" d="M859.92,-215.7C859.92,-208.24 859.92,-199.32 859.92,-190.97"/>
<polygon fill="black" stroke="black" points="863.42,-191.1 859.92,-181.1 856.42,-191.1 863.42,-191.1"/>
</g>
<!-- [root] root -->
<g id="node8" class="node">
<title>[root] root</title>
<ellipse fill="none" stroke="black" cx="859.92" cy="-306" rx="50.07" ry="18"/>
<text text-anchor="middle" x="859.92" y="-300.57" font-family="Times New Roman,serif" font-size="14.00">[root] root</text>
</g>
<!-- [root] root&#45;&gt;[root] provider[&quot;registry.terraform.io/hashicorp/azurerm&quot;] (close) -->
<g id="edge7" class="edge">
<title>[root] root&#45;&gt;[root] provider[&quot;registry.terraform.io/hashicorp/azurerm&quot;] (close)</title>
<path fill="none" stroke="black" d="M859.92,-287.7C859.92,-280.24 859.92,-271.32 859.92,-262.97"/>
<polygon fill="black" stroke="black" points="863.42,-263.1 859.92,-253.1 856.42,-263.1 863.42,-263.1"/>
</g>
</g>
</svg>
